<?xml version="1.0" encoding="UTF-8" standalone="no"?><!DOCTYPE svg PUBLIC "-//W3C//DTD SVG 1.1//EN" "http://www.w3.org/Graphics/SVG/1.1/DTD/svg11.dtd"><svg width="100%" height="100%" viewBox="0 0 2438 1092" version="1.1" xmlns="http://www.w3.org/2000/svg" xmlns:xlink="http://www.w3.org/1999/xlink" xml:space="preserve" xmlns:serif="http://www.serif.com/" style="fill-rule:evenodd;clip-rule:evenodd;stroke-linejoin:round;stroke-miterlimit:2;"><path d="M2437.5,769.51l-0,322.036l-2437.5,-0l0,-677.838l30.728,47.079l0,196.976l66.104,59.334l24.421,0l-0,-209.231l45.63,-47.079l66.577,0l40.051,-99.014l36.782,99.014l0,188.352l22.454,-0l-0,-116.423l19.169,0l-0,-63.961l36.939,-55.047l39.107,55.047l0,63.961l40.013,0l-0,51.036l37.916,26.964l0,73.154l38.479,-0l-0,-280.664l168.341,-0l-0,104.66l136.87,0l0,70.257l41.874,-0l-0,-109.368l46.77,-0l120.039,-49.774l31.288,41.806l20.047,-57.581l75.287,-0l33.864,57.581l-0,223.083l33.53,-0l-0,-53.888l35.447,-36.425l0,-206.934l86.515,-32.448l37.962,32.448l-0,146.093l36.506,60.841l0,90.313l31.145,-0l-0,-501.348l26.935,0l-0,-48.672l25.8,-22.673l14.181,-111.177l11.647,111.177l27.754,22.673l0,48.672l25.504,0l0,501.348l16.165,-0l0,-196.284l130.953,0l19.932,-68.605l18.079,68.605l16.456,0l-0,196.284l47.096,-0l0,-73.154l89.795,0l0,-32.593l118.06,-0l0,32.593l42.199,0l0,191.984l28.248,33.317l31.894,0l0,-53.598l30.255,-44.43l68.106,0l0,-54.119l22.226,-34.731l14.296,-90.393l16.552,90.393l22.253,34.731l0,54.119l74.444,0l18.815,31.521Z" style="fill:#ffbab0;"/></svg>